<svg xmlns="http://www.w3.org/2000/svg" fill="none" stroke="white" stroke-width="1.3em" xml:space="preserve" width="7.00024cm" height="7.50147cm" version="1.0" style="shape-rendering:geometricPrecision; text-rendering:geometricPrecision; image-rendering:optimizeQuality; fill-rule:evenodd; clip-rule:evenodd"
     viewBox="0 0 700.024 750.026">
<symbol id="busd" viewBox="3.039 -0.718 693.946 751.461">
 <polygon class="fil0 str0" points="350.012,0.419 522.999,94.065 695.985,187.714 695.985,375.012 695.985,562.309 522.999,655.958 350.012,749.606 177.026,655.958 4.039,562.309 4.039,375.012 4.039,187.714 177.026,94.065 "/>
 <polygon class="fil0 str0" points="256.987,346.685 195.009,289.624 350.67,146.31 412.648,203.372 "/>
 <polygon class="fil0 str0" points="163.583,432.68 101.605,375.618 162.864,319.22 224.841,376.281 "/>
 <polygon class="fil0 str0" points="255.45,517.259 192.983,459.747 442.047,230.44 504.513,287.951 "/>
 <polygon class="fil0 str0" points="349.352,603.713 286.886,546.201 535.949,316.894 598.417,374.405 "/>
</symbol>
 <g id="layer2">
  <metadata id="CorelCorpID_0Corel-Layer"/>
  <polygon class="fil0 str0" points="349.049,-0.124 522.036,93.522 695.022,187.171 695.022,374.469 695.022,561.766 522.036,655.415 349.049,749.063 176.063,655.415 3.076,561.766 3.076,374.469 3.076,187.171 176.063,93.522 "/>
  <polygon class="fil0 str0" points="256.024,346.142 194.046,289.081 349.707,145.767 411.685,202.829 "/>
  <polygon class="fil0 str0" points="162.62,432.137 100.642,375.075 161.901,318.677 223.878,375.738 "/>
  <polygon class="fil0 str0" points="254.487,516.716 192.02,459.204 441.084,229.897 503.55,287.408 "/>
  <polygon class="fil0 str0" points="348.389,603.17 285.923,545.658 534.986,316.351 597.453,373.862 "/>
 </g>
</svg>
